<?xml version="1.0" encoding="utf-8"?>
<!-- Generator: Adobe Illustrator 24.2.1, SVG Export Plug-In . SVG Version: 6.00 Build 0)  -->
<svg version="1.1" id="Layer_1" xmlns="http://www.w3.org/2000/svg" xmlns:xlink="http://www.w3.org/1999/xlink" x="0px" y="0px"
	 viewBox="0 0 58 26" style="enable-background:new 0 0 58 26;" xml:space="preserve">
<style type="text/css">
	.st0{fill:#FFFFFF;}
</style>
<g>
	<g>
		<path class="st0" d="M8,11.5c-0.8,0-1.5,0.6-1.5,1.5c0,0.8,0.6,1.5,1.5,1.5c0.8,0,1.5-0.7,1.5-1.5C9.5,12.2,8.9,11.5,8,11.5z"/>
		<path class="st0" d="M8,5c-4.4,0-8,3.6-8,8s3.6,8,8,8c4.4,0,8-3.6,8-8S12.4,5,8,5z M10.1,18.5c-2.8,1-5.9-0.2-7.3-2.8
			c-1.3-2.6-0.5-5.8,2-7.5c2.6-1.7,5.7-1,7.3,0.7c-0.2,0.2-0.4,0.4-0.7,0.7c-1.1-1-2.4-1.5-3.8-1.3c-1.1,0.1-2.1,0.6-3,1.4
			c-1.5,1.5-1.9,3.9-0.8,5.8c1.1,1.9,3.3,2.8,5.5,2.2c1.9-0.5,3.5-2.4,3.5-4.1c-0.7,0-1.4,0-2.1,0c-0.1,0-0.2,0.2-0.3,0.4
			c-0.4,0.9-1.1,1.5-2.2,1.6c-1.1,0.1-1.9-0.4-2.4-1.3c-0.7-1.2-0.2-2.8,1.1-3.4c1.3-0.6,2.8-0.1,3.4,1.3c0.2,0.4,0.4,0.5,0.8,0.5
			c0.9,0,1.8,0,2.8,0C14.1,14.8,12.7,17.5,10.1,18.5z"/>
	</g>
	<g>
		<path class="st0" d="M27.9,9.7c-0.8-0.4-1.9-0.8-3.2-0.8c-2,0-3.5,1.5-3.5,3.6c0,2,1.4,3.6,3.4,3.6c1.9,0,3-1.3,3-2.6
			c0-0.1,0-0.2,0-0.3h-3v-2.2h5.5c0.1,0.4,0.2,1.1,0.2,1.7c0,3.1-2,5.8-5.7,5.8c-3.4,0-5.8-2.6-5.8-6c0-3.4,2.5-6,6-6
			c1.2,0,2.4,0.2,3.2,0.5V9.7z"/>
		<path class="st0" d="M35.5,9.6c2.5,0,4.4,1.9,4.4,4.4c0,2.5-1.9,4.5-4.4,4.5c-2.5,0-4.4-2-4.4-4.5C31.1,11.6,33,9.6,35.5,9.6z
			 M35.5,16.3c1.2,0,2.1-1,2.1-2.2c0-1.2-0.9-2.2-2.1-2.2c-1.2,0-2.1,1-2.1,2.2C33.4,15.3,34.3,16.3,35.5,16.3z"/>
		<path class="st0" d="M47.5,9.6c-0.6-0.4-1.6-0.8-2.5-0.8c-1,0-1.4,0.4-1.4,1c0,0.4,0.3,0.7,0.9,1.1l1.5,0.9
			c1.5,0.9,2.1,1.9,2.1,3.2c0,1.8-1.2,3.5-3.9,3.5c-1.1,0-2.2-0.3-2.9-0.6v-2.7c0.6,0.5,1.8,1,2.8,1c0.9,0,1.4-0.4,1.4-1.1
			c0-0.4-0.3-0.8-0.9-1.1L43,13.1c-1.5-0.9-2-1.9-2-3.2c0-1.6,1-3.4,4.1-3.4c0.9,0,1.8,0.2,2.5,0.5V9.6z"/>
		<path class="st0" d="M49.9,6.7h4c2.1,0,3.6,1.3,3.6,3.1c0,1.3-0.5,2.1-1.4,2.6c1,0.5,1.7,1.4,1.7,2.8c0,1.9-1.6,3.2-3.9,3.2h-4.1
			V6.7z M54,9h-1.6v2.2H54c0.7,0,1.1-0.3,1.1-1.1C55.1,9.4,54.6,9,54,9z M54.1,13.6h-1.7V16h1.7c0.8,0,1.4-0.4,1.4-1.2
			C55.5,14,54.9,13.6,54.1,13.6z"/>
	</g>
</g>
</svg>
